<svg xmlns="http://www.w3.org/2000/svg" viewBox="0 0 24 24" fill="currentColor">
  <!-- Head ring (evenodd: outer circle, inner circle as hole) -->
  <path fill-rule="evenodd" d="M12 1.5C6.2 1.5 1.5 6.2 1.5 12S6.2 22.5 12 22.5 22.5 17.8 22.5 12 17.8 1.5 12 1.5zm0 1.8c4.8 0 8.7 3.9 8.7 8.7s-3.9 8.7-8.7 8.7-8.7-3.9-8.7-8.7S7.2 3.3 12 3.3z"/>
  <!-- Top crest -->
  <path d="M9.8 3.5c.6-.8 1.3-1.3 2.2-1.3s1.6.5 2.2 1.3c.3.4.5.8.5 1.3v1.5c0 .2-.1.4-.3.5-.4.2-1.2.4-2.4.4s-2-.2-2.4-.4c-.2-.1-.3-.3-.3-.5V4.8c0-.5.2-.9.5-1.3z"/>
  <!-- Ear modules -->
  <rect x="0.8" y="9.8" width="3.2" height="4.8" rx="1.6"/>
  <rect x="20" y="9.8" width="3.2" height="4.8" rx="1.6"/>
  <!-- Visor face with eyes and smile cutouts (all sub-paths create holes via evenodd) -->
  <path fill-rule="evenodd" d="
    M8 7h8a2.5 2.5 0 012.5 2.5v5A2.5 2.5 0 0116 17H8a2.5 2.5 0 01-2.5-2.5v-5A2.5 2.5 0 018 7z
    M9.2 9.7a1.5 1.8 0 100 3.6 1.5 1.8 0 000-3.6z
    M14.8 9.7a1.5 1.8 0 100 3.6 1.5 1.8 0 000-3.6z
    M10 14.6a.4.4 0 00-.1.3c0 .1 0 .2.1.3.5.5 1.2.8 2 .8s1.5-.3 2-.8a.4.4 0 00.1-.3c0-.1 0-.2-.1-.3-.5-.1-1.2-.1-2-.1s-1.5 0-2 .1z
  "/>
  <!-- Chin piece -->
  <path d="M10 19.8c.5.5 1.2.7 2 .7s1.5-.2 2-.7c.2-.2.3-.4.3-.7v-.6c0-.2-.1-.3-.2-.4-.3-.2-1-.3-2.1-.3s-1.8.1-2.1.3c-.1.1-.2.2-.2.4v.6c0 .3.1.5.3.7z"/>
</svg>
